<svg viewBox="0 0 72 80" xmlns="http://www.w3.org/2000/svg" fill-rule="evenodd" clip-rule="evenodd" stroke-linejoin="round" stroke-miterlimit="1.414"><path d="M65.332 8.115a2.028 2.028 0 0 1 .007.981l.007.032h.05l-.02.187a2.676 2.676 0 0 1-.123 1.175l-5.32 50.462C58.23 61.77 50.91 64.8 36 64.8c-14.908 0-22.23-3.03-23.933-3.847L6.747 10.49a2.676 2.676 0 0 1-.122-1.175l-.02-.187h.049l.007-.032a2.061 2.061 0 0 1 .008-.98 2.035 2.035 0 0 1-.065-.506C6.604 3.417 19.765.018 36 .018S65.396 3.417 65.396 7.61c0 .17-.022.338-.064.505zm-58.5.443a2.926 2.926 0 0 0-.171.538c.948 3.972 13.721 7.117 29.34 7.117 15.617 0 28.39-3.145 29.338-7.117a2.926 2.926 0 0 0-.17-.538C63.36 12.303 50.99 15.201 36 15.201c-14.99 0-27.36-2.898-29.168-6.643zm53.217 53.86c7.027 1.85 11.429 4.5 11.429 7.443 0 5.59-15.884 10.122-35.478 10.122S.523 75.45.523 69.86c0-2.943 4.401-5.593 11.428-7.442l.735 4.404S13.7 71.885 36 71.885s23.314-5.062 23.314-5.062l.735-4.404z" fill="#fff"/></svg>