<svg viewBox="0 0 440 230" version="1.1" xmlns="http://www.w3.org/2000/svg" xmlns:xlink="http://www.w3.org/1999/xlink" xml:space="preserve" fill-rule="evenodd" clip-rule="evenodd" stroke-linejoin="round" stroke-miterlimit="1.414">
    <defs>
        <path id="a" d="M114.2 164.646c-5.361 5.046-12.002 8.473-18.88 11.346-3.888 14.976-16.992 48.24-42.192 48.24-9.792 0-17.136-5.04-17.136-13.968 0-13.536 17.136-25.488 35.136-33.552l2.016-8.208c-4.32 4.608-9.792 7.2-17.136 7.2-15.84 0-22.752-13.104-22.752-29.664 0-28.368 20.736-67.104 52.128-67.104 15.984 0 22.608 10.08 22.608 19.152 0 7.344-4.32 13.968-11.808 13.968-4.896 0-8.784-2.736-9.648-6.624 3.6-3.6 5.328-8.784 5.328-12.096 0-3.312-1.728-5.76-5.616-5.76-15.696 0-29.808 38.016-29.808 60.48 0 9.216 2.448 15.696 8.208 15.696 7.632 0 13.248-14.832 18-34.272l1.152-4.608h24.48l-10.512 41.184c6.292-2.797 11.788-6.07 15.781-10.787 1.272-18.449 16.756-39.181 39.371-39.181 12.816 0 18.72 6.768 18.72 14.544 0 11.808-13.536 25.488-34.272 29.232.864 6.768 4.464 11.808 11.952 11.808 11.088 0 25.92-10.224 30.24-27.648l6.336-24.768h23.04l-2.304 8.928c7.488-8.928 16.272-12.096 23.328-12.096 8.208 0 13.536 4.32 13.536 13.248 0 6.336-2.736 14.112-5.184 21.024-2.016 5.616-3.744 10.8-3.744 14.112 0 2.448 1.008 4.032 3.744 4.032 7.488 0 14.4-11.808 17.568-24.48l3.744-15.12h-6.48l2.304-9.648h6.624l6.624-27.072 23.76-2.88-7.488 29.952h12.24l-2.304 9.648h-12.24l-5.328 21.456c-1.296 5.472-2.448 9.648-2.448 12.384 0 4.608 3.168 5.616 5.328 5.616 6.624 0 16.848-10.224 20.448-24.336l8.64-34.992 5.76 1.728-1.296 5.184 12.816 3.312c14.256 3.6 16.992 10.08 16.992 14.688 0 4.032-2.016 10.224-3.888 16.272-1.728 5.616-3.6 11.232-3.6 14.544 0 2.304.864 3.744 3.312 3.744 7.116 0 14.091-11.534 17.311-24.036l.113-.444 6.192-24.768h23.04l-8.208 32.688c-.576 2.448-2.016 7.488-2.016 10.512 0 3.168 1.44 5.04 3.888 5.04 5.76 0 11.52-10.368 16.56-31.104l4.176-17.136h23.04l-13.968 55.584c11.232-6.192 19.008-14.544 22.176-31.104 1.296-.576 2.448-1.008 3.456-1.008 2.304 0 3.6 1.728 3.6 5.76 0 11.664-11.52 23.76-20.592 30.24-3.6 2.592-7.344 4.608-11.232 6.336-5.184 16.992-15.696 40.752-39.168 40.752-10.224 0-16.128-4.464-16.128-12.672 0-14.4 18-21.744 32.688-27.36l3.6-14.688c-7.344 9.36-14.976 11.808-21.6 11.808-10.068 0-13.852-5.585-13.965-14.143-5.918 8.05-14.447 14.143-26.499 14.143-11.088 0-13.68-5.184-13.68-12.528 0-3.888.72-7.92 1.728-11.808 2.304-9.504 6.336-18.72 6.336-24.192 0-3.6-1.728-5.472-5.04-6.336l-4.176-1.008-4.752 19.152c-4.176 16.128-18.288 36.72-39.168 36.72-10.352 0-15.268-5.165-15.54-14.305-5.916 8.13-14.508 14.305-26.796 14.305-11.376 0-14.112-5.328-14.112-12.528 0-7.344 2.88-15.84 5.328-22.896 1.728-5.184 3.312-9.792 3.312-12.672 0-2.16-.864-3.312-3.312-3.312-5.76 0-11.952 6.768-15.264 19.872l-7.056 28.368h-23.04l2.842-11.369c-8.126 9.051-19.577 15.113-33.082 15.113-15.607 0-23.821-8.181-26.192-18.834zm253.424 51.234c-2.16 0-4.32-1.008-4.32-4.752 0-6.336 6.192-10.8 18.72-15.984-2.304 8.784-7.2 20.736-14.4 20.736zm-314.64-1.728c-2.304 0-4.176-1.728-4.176-5.472 0-6.48 5.328-14.112 19.728-21.6-4.032 15.408-9.792 27.072-15.552 27.072zm100.224-89.28c2.88 0 3.744 2.88 3.744 5.472 0 7.632-7.2 19.008-19.728 22.032 1.44-12.672 9.216-27.504 15.984-27.504z"/>
    </defs>
    <use xlink:href="#a" href="#a" fill="#3e4a21"/>
    <use xlink:href="#a" href="#a" x="-4" y="-4" fill="#95ab63" stroke="#fff" stroke-width="2"/>
    <path d="M31.081 88.547l2.543 13.031 39.022-6.427 25.387-16.436-7.896-4.132-3.764-11.063-55.292 25.027z" fill="#e6e6e6"/>
    <path d="M70.343 4.034a2.547 2.547 0 0 1 .458 1.157l.022.034.059-.023.062.231a3.305 3.305 0 0 1 .391 1.446L88.12 69.013c-1.641 1.746-8.917 8.68-26.554 15.498-17.638 6.818-27.685 6.581-30.075 6.393L2.119 33.636a3.38 3.38 0 0 1-.683-1.333l-.109-.213.059-.023-.007-.04a2.599 2.599 0 0 1-.439-1.164 2.592 2.592 0 0 1-.308-.569c-1.917-4.961 12.099-15.001 31.306-22.426C51.145.443 68.27-1.555 70.187 3.406c.078.201.13.411.156.628zM1.335 31.312c-.008.245.006.484.044.715 2.938 4.265 19.489 2.145 37.966-4.998 18.477-7.143 32.15-16.706 31.456-21.838a3.624 3.624 0 0 0-.449-.558c-.426 5.257-13.735 14.343-31.47 21.198-17.735 6.856-33.695 9.085-37.547 5.481zm87.594 39.384c9.159-1.026 15.578.096 16.924 3.577 2.557 6.614-14.162 19.24-37.343 28.201-23.182 8.961-44.046 10.864-46.603 4.25-1.346-3.481 2.65-8.629 10.118-14.031l2.884 4.875s3.514 5.525 29.897-4.674c26.383-10.199 25.268-16.65 25.268-16.65l-1.145-5.548z" fill="#152d38"/>
</svg>
